<svg width="16" height="16" viewBox="0 0 16 16" fill="none" xmlns="http://www.w3.org/2000/svg">
   <path fill-rule="evenodd" clip-rule="evenodd" d="M2.2666 7.99896C2.2666 4.83253 4.8335 2.26562 7.99994 2.26562C11.1664 2.26562 13.7333 4.83253 13.7333 7.99896C13.7333 11.1654 11.1664 13.7323 7.99994 13.7323C4.8335 13.7323 2.2666 11.1654 2.2666 7.99896ZM7.99994 3.06563C5.27533 3.06563 3.0666 5.27435 3.0666 7.99896C3.0666 10.7236 5.27533 12.9323 7.99994 12.9323C10.7245 12.9323 12.9333 10.7236 12.9333 7.99896C12.9333 5.27435 10.7245 3.06563 7.99994 3.06563ZM7.99994 4.93229C8.22085 4.93229 8.39994 5.11138 8.39994 5.33229V8.37991C8.39994 8.60083 8.22085 8.77991 7.99994 8.77991C7.77902 8.77991 7.59994 8.60083 7.59994 8.37991V5.33229C7.59994 5.11138 7.77902 4.93229 7.99994 4.93229ZM7.99994 9.88467C8.22085 9.88467 8.39994 10.0638 8.39994 10.2847V10.2923C8.39994 10.5132 8.22085 10.6923 7.99994 10.6923C7.77902 10.6923 7.59994 10.5132 7.59994 10.2923V10.2847C7.59994 10.0638 7.77902 9.88467 7.99994 9.88467Z" fill="#E34850"/>
</svg>
